<mxfile host="65bd71144e">
    <diagram id="jKoWLsOrlJrbnzoTAPFB" name="Page-1">
        <mxGraphModel dx="920" dy="756" grid="1" gridSize="10" guides="1" tooltips="1" connect="1" arrows="1" fold="1" page="1" pageScale="1" pageWidth="827" pageHeight="1169" math="0" shadow="0">
            <root>
                <mxCell id="0"/>
                <mxCell id="1" parent="0"/>
                <mxCell id="2" value="&lt;h2&gt;Esercizio 1&lt;/h2&gt;&lt;p&gt;&lt;font style=&quot;font-size: 12px;&quot;&gt;Richiedere in input il raggio di una circonferenza, quindi calcolare e comunicare area e perimetro.&lt;/font&gt;&lt;/p&gt;" style="text;html=1;strokeColor=#3333FF;fillColor=none;spacing=5;spacingTop=-20;whiteSpace=wrap;overflow=hidden;rounded=1;" vertex="1" parent="1">
                    <mxGeometry x="10" y="10" width="270" height="100" as="geometry"/>
                </mxCell>
                <mxCell id="12" style="edgeStyle=none;html=1;entryX=0.5;entryY=0;entryDx=0;entryDy=0;fontSize=12;" edge="1" parent="1" source="3" target="6">
                    <mxGeometry relative="1" as="geometry"/>
                </mxCell>
                <mxCell id="3" value="inizio" style="strokeWidth=2;html=1;shape=mxgraph.flowchart.start_1;whiteSpace=wrap;rounded=1;strokeColor=#3333FF;fontSize=12;" vertex="1" parent="1">
                    <mxGeometry x="350" y="40" width="100" height="40" as="geometry"/>
                </mxCell>
                <mxCell id="14" style="edgeStyle=none;html=1;exitX=0.5;exitY=1;exitDx=0;exitDy=0;entryX=0.5;entryY=0;entryDx=0;entryDy=0;fontSize=12;" edge="1" parent="1" source="4" target="5">
                    <mxGeometry relative="1" as="geometry"/>
                </mxCell>
                <mxCell id="4" value="Inserisci un raggio" style="shape=parallelogram;html=1;strokeWidth=2;perimeter=parallelogramPerimeter;whiteSpace=wrap;rounded=1;arcSize=12;size=0.23;strokeColor=#3333FF;fontSize=12;" vertex="1" parent="1">
                    <mxGeometry x="325" y="190" width="150" height="40" as="geometry"/>
                </mxCell>
                <mxCell id="15" style="edgeStyle=none;html=1;exitX=0.5;exitY=1;exitDx=0;exitDy=0;entryX=0.5;entryY=0;entryDx=0;entryDy=0;fontSize=12;" edge="1" parent="1" source="5" target="7">
                    <mxGeometry relative="1" as="geometry"/>
                </mxCell>
                <mxCell id="5" value="&lt;br&gt;raggio" style="html=1;strokeWidth=2;shape=manualInput;whiteSpace=wrap;rounded=1;size=26;arcSize=11;strokeColor=#3333FF;fontSize=12;" vertex="1" parent="1">
                    <mxGeometry x="350" y="250" width="100" height="40" as="geometry"/>
                </mxCell>
                <mxCell id="13" style="edgeStyle=none;html=1;exitX=0.5;exitY=1;exitDx=0;exitDy=0;entryX=0.5;entryY=0;entryDx=0;entryDy=0;fontSize=12;" edge="1" parent="1" source="6" target="4">
                    <mxGeometry relative="1" as="geometry"/>
                </mxCell>
                <mxCell id="6" value="raggio = 0&lt;br&gt;PI = 3.14&lt;br&gt;area = 0.0&lt;br&gt;perimetro = 0.0" style="rounded=1;whiteSpace=wrap;html=1;absoluteArcSize=1;arcSize=14;strokeWidth=2;strokeColor=#3333FF;fontSize=12;" vertex="1" parent="1">
                    <mxGeometry x="350" y="100" width="100" height="70" as="geometry"/>
                </mxCell>
                <mxCell id="16" style="edgeStyle=none;html=1;exitX=0.5;exitY=1;exitDx=0;exitDy=0;entryX=0.5;entryY=0;entryDx=0;entryDy=0;fontSize=12;" edge="1" parent="1" source="7" target="8">
                    <mxGeometry relative="1" as="geometry"/>
                </mxCell>
                <mxCell id="7" value="perimetro = 2 * PI * raggio" style="rounded=1;whiteSpace=wrap;html=1;absoluteArcSize=1;arcSize=14;strokeWidth=2;strokeColor=#3333FF;fontSize=12;" vertex="1" parent="1">
                    <mxGeometry x="325" y="310" width="150" height="40" as="geometry"/>
                </mxCell>
                <mxCell id="17" style="edgeStyle=none;html=1;exitX=0.5;exitY=1;exitDx=0;exitDy=0;entryX=0.5;entryY=0;entryDx=0;entryDy=0;fontSize=12;" edge="1" parent="1" source="8" target="9">
                    <mxGeometry relative="1" as="geometry"/>
                </mxCell>
                <mxCell id="8" value="area = PI * raggio * raggio" style="rounded=1;whiteSpace=wrap;html=1;absoluteArcSize=1;arcSize=14;strokeWidth=2;strokeColor=#3333FF;fontSize=12;" vertex="1" parent="1">
                    <mxGeometry x="320" y="374" width="160" height="40" as="geometry"/>
                </mxCell>
                <mxCell id="18" style="edgeStyle=none;html=1;exitX=0.5;exitY=1;exitDx=0;exitDy=0;entryX=0.5;entryY=0;entryDx=0;entryDy=0;fontSize=12;" edge="1" parent="1" source="9" target="10">
                    <mxGeometry relative="1" as="geometry"/>
                </mxCell>
                <mxCell id="9" value="&quot;area: &quot; area" style="shape=parallelogram;html=1;strokeWidth=2;perimeter=parallelogramPerimeter;whiteSpace=wrap;rounded=1;arcSize=12;size=0.23;strokeColor=#3333FF;fontSize=12;" vertex="1" parent="1">
                    <mxGeometry x="350" y="440" width="100" height="40" as="geometry"/>
                </mxCell>
                <mxCell id="19" style="edgeStyle=none;html=1;exitX=0.5;exitY=1;exitDx=0;exitDy=0;entryX=0.5;entryY=0;entryDx=0;entryDy=0;entryPerimeter=0;fontSize=12;" edge="1" parent="1" source="10" target="11">
                    <mxGeometry relative="1" as="geometry"/>
                </mxCell>
                <mxCell id="10" value="&quot;perimetro: &quot; perimetro" style="shape=parallelogram;html=1;strokeWidth=2;perimeter=parallelogramPerimeter;whiteSpace=wrap;rounded=1;arcSize=12;size=0.23;strokeColor=#3333FF;fontSize=12;" vertex="1" parent="1">
                    <mxGeometry x="350" y="510" width="100" height="40" as="geometry"/>
                </mxCell>
                <mxCell id="11" value="fine" style="strokeWidth=2;html=1;shape=mxgraph.flowchart.start_1;whiteSpace=wrap;rounded=1;strokeColor=#3333FF;fontSize=12;" vertex="1" parent="1">
                    <mxGeometry x="350" y="570" width="100" height="40" as="geometry"/>
                </mxCell>
            </root>
        </mxGraphModel>
    </diagram>
    <diagram id="oKIv6HRgqj9rWkcEXa41" name="Page-2">
        <mxGraphModel dx="956" dy="626" grid="1" gridSize="10" guides="1" tooltips="1" connect="1" arrows="1" fold="1" page="1" pageScale="1" pageWidth="827" pageHeight="1169" math="0" shadow="0">
            <root>
                <mxCell id="0"/>
                <mxCell id="1" parent="0"/>
                <mxCell id="g3Fr-_JGRp835OydudZa-1" value="&lt;h2&gt;Esercizio 2&lt;/h2&gt;&lt;p&gt;Richiedere in input il perimetro di quadrato, calcola e comunicare la lunghezza del lato e lâ€™area.&lt;/p&gt;" style="text;html=1;strokeColor=#3333FF;fillColor=none;spacing=5;spacingTop=-20;whiteSpace=wrap;overflow=hidden;rounded=1;" vertex="1" parent="1">
                    <mxGeometry x="10" y="10" width="270" height="100" as="geometry"/>
                </mxCell>
                <mxCell id="F_BYJX-3C7G40PX5PXEd-1" style="edgeStyle=none;html=1;entryX=0.5;entryY=0;entryDx=0;entryDy=0;fontSize=12;" edge="1" parent="1" source="F_BYJX-3C7G40PX5PXEd-2" target="F_BYJX-3C7G40PX5PXEd-8">
                    <mxGeometry relative="1" as="geometry"/>
                </mxCell>
                <mxCell id="F_BYJX-3C7G40PX5PXEd-2" value="inizio" style="strokeWidth=2;html=1;shape=mxgraph.flowchart.start_1;whiteSpace=wrap;rounded=1;strokeColor=#3333FF;fontSize=12;" vertex="1" parent="1">
                    <mxGeometry x="350" y="40" width="100" height="40" as="geometry"/>
                </mxCell>
                <mxCell id="F_BYJX-3C7G40PX5PXEd-3" style="edgeStyle=none;html=1;exitX=0.5;exitY=1;exitDx=0;exitDy=0;entryX=0.5;entryY=0;entryDx=0;entryDy=0;fontSize=12;" edge="1" parent="1" source="F_BYJX-3C7G40PX5PXEd-4" target="F_BYJX-3C7G40PX5PXEd-6">
                    <mxGeometry relative="1" as="geometry"/>
                </mxCell>
                <mxCell id="F_BYJX-3C7G40PX5PXEd-4" value="Inserisci il perimetro" style="shape=parallelogram;html=1;strokeWidth=2;perimeter=parallelogramPerimeter;whiteSpace=wrap;rounded=1;arcSize=12;size=0.23;strokeColor=#3333FF;fontSize=12;" vertex="1" parent="1">
                    <mxGeometry x="325" y="190" width="150" height="40" as="geometry"/>
                </mxCell>
                <mxCell id="F_BYJX-3C7G40PX5PXEd-18" style="edgeStyle=none;html=1;exitX=0.5;exitY=1;exitDx=0;exitDy=0;entryX=0.5;entryY=0;entryDx=0;entryDy=0;fontSize=12;" edge="1" parent="1" source="F_BYJX-3C7G40PX5PXEd-6" target="F_BYJX-3C7G40PX5PXEd-10">
                    <mxGeometry relative="1" as="geometry"/>
                </mxCell>
                <mxCell id="F_BYJX-3C7G40PX5PXEd-6" value="&lt;br&gt;perimetro" style="html=1;strokeWidth=2;shape=manualInput;whiteSpace=wrap;rounded=1;size=26;arcSize=11;strokeColor=#3333FF;fontSize=12;" vertex="1" parent="1">
                    <mxGeometry x="350" y="250" width="100" height="40" as="geometry"/>
                </mxCell>
                <mxCell id="F_BYJX-3C7G40PX5PXEd-7" style="edgeStyle=none;html=1;exitX=0.5;exitY=1;exitDx=0;exitDy=0;entryX=0.5;entryY=0;entryDx=0;entryDy=0;fontSize=12;" edge="1" parent="1" source="F_BYJX-3C7G40PX5PXEd-8" target="F_BYJX-3C7G40PX5PXEd-4">
                    <mxGeometry relative="1" as="geometry"/>
                </mxCell>
                <mxCell id="F_BYJX-3C7G40PX5PXEd-8" value="perimetro = 0&lt;br&gt;lato = 0.0&lt;br&gt;area = 0.0" style="rounded=1;whiteSpace=wrap;html=1;absoluteArcSize=1;arcSize=14;strokeWidth=2;strokeColor=#3333FF;fontSize=12;" vertex="1" parent="1">
                    <mxGeometry x="350" y="100" width="100" height="70" as="geometry"/>
                </mxCell>
                <mxCell id="F_BYJX-3C7G40PX5PXEd-19" style="edgeStyle=none;html=1;exitX=0.5;exitY=1;exitDx=0;exitDy=0;entryX=0.5;entryY=0;entryDx=0;entryDy=0;fontSize=12;" edge="1" parent="1" source="F_BYJX-3C7G40PX5PXEd-10" target="F_BYJX-3C7G40PX5PXEd-12">
                    <mxGeometry relative="1" as="geometry"/>
                </mxCell>
                <mxCell id="F_BYJX-3C7G40PX5PXEd-10" value="lato = perimetro / 4" style="rounded=1;whiteSpace=wrap;html=1;absoluteArcSize=1;arcSize=14;strokeWidth=2;strokeColor=#3333FF;fontSize=12;" vertex="1" parent="1">
                    <mxGeometry x="325" y="310" width="150" height="40" as="geometry"/>
                </mxCell>
                <mxCell id="F_BYJX-3C7G40PX5PXEd-11" style="edgeStyle=none;html=1;exitX=0.5;exitY=1;exitDx=0;exitDy=0;entryX=0.5;entryY=0;entryDx=0;entryDy=0;fontSize=12;" edge="1" parent="1" source="F_BYJX-3C7G40PX5PXEd-12" target="F_BYJX-3C7G40PX5PXEd-14">
                    <mxGeometry relative="1" as="geometry"/>
                </mxCell>
                <mxCell id="F_BYJX-3C7G40PX5PXEd-12" value="area = lato * lato" style="rounded=1;whiteSpace=wrap;html=1;absoluteArcSize=1;arcSize=14;strokeWidth=2;strokeColor=#3333FF;fontSize=12;" vertex="1" parent="1">
                    <mxGeometry x="320" y="374" width="160" height="40" as="geometry"/>
                </mxCell>
                <mxCell id="F_BYJX-3C7G40PX5PXEd-13" style="edgeStyle=none;html=1;exitX=0.5;exitY=1;exitDx=0;exitDy=0;entryX=0.5;entryY=0;entryDx=0;entryDy=0;fontSize=12;" edge="1" parent="1" source="F_BYJX-3C7G40PX5PXEd-14" target="F_BYJX-3C7G40PX5PXEd-16">
                    <mxGeometry relative="1" as="geometry"/>
                </mxCell>
                <mxCell id="F_BYJX-3C7G40PX5PXEd-14" value="&quot;lato: &quot; lato" style="shape=parallelogram;html=1;strokeWidth=2;perimeter=parallelogramPerimeter;whiteSpace=wrap;rounded=1;arcSize=12;size=0.23;strokeColor=#3333FF;fontSize=12;" vertex="1" parent="1">
                    <mxGeometry x="350" y="440" width="100" height="40" as="geometry"/>
                </mxCell>
                <mxCell id="F_BYJX-3C7G40PX5PXEd-15" style="edgeStyle=none;html=1;exitX=0.5;exitY=1;exitDx=0;exitDy=0;entryX=0.5;entryY=0;entryDx=0;entryDy=0;entryPerimeter=0;fontSize=12;" edge="1" parent="1" source="F_BYJX-3C7G40PX5PXEd-16" target="F_BYJX-3C7G40PX5PXEd-17">
                    <mxGeometry relative="1" as="geometry"/>
                </mxCell>
                <mxCell id="F_BYJX-3C7G40PX5PXEd-16" value="&quot;area: &quot; area" style="shape=parallelogram;html=1;strokeWidth=2;perimeter=parallelogramPerimeter;whiteSpace=wrap;rounded=1;arcSize=12;size=0.23;strokeColor=#3333FF;fontSize=12;" vertex="1" parent="1">
                    <mxGeometry x="350" y="510" width="100" height="40" as="geometry"/>
                </mxCell>
                <mxCell id="F_BYJX-3C7G40PX5PXEd-17" value="fine" style="strokeWidth=2;html=1;shape=mxgraph.flowchart.start_1;whiteSpace=wrap;rounded=1;strokeColor=#3333FF;fontSize=12;" vertex="1" parent="1">
                    <mxGeometry x="350" y="570" width="100" height="40" as="geometry"/>
                </mxCell>
            </root>
        </mxGraphModel>
    </diagram>
    <diagram id="KY8eq8G2WHhtYzk1b2OY" name="Page-3">
        <mxGraphModel dx="1155" dy="647" grid="1" gridSize="10" guides="1" tooltips="1" connect="1" arrows="1" fold="1" page="1" pageScale="1" pageWidth="827" pageHeight="1169" math="0" shadow="0">
            <root>
                <mxCell id="0"/>
                <mxCell id="1" parent="0"/>
                <mxCell id="6pI2BxqR1edeEHrPernu-1" value="&lt;h2&gt;Esercizio 3&lt;/h2&gt;&lt;p&gt;&lt;span style=&quot;background-color: initial;&quot;&gt;Richiedere in input la misura delle basi e lâ€™altezza di un trapezio,&amp;nbsp;calcolare e comunicare lâ€™area.&lt;/span&gt;&lt;/p&gt;" style="text;html=1;strokeColor=#3333FF;fillColor=none;spacing=5;spacingTop=-20;whiteSpace=wrap;overflow=hidden;rounded=1;" vertex="1" parent="1">
                    <mxGeometry x="10" y="10" width="270" height="100" as="geometry"/>
                </mxCell>
                <mxCell id="R-RN0vDuzp3KD049gmzq-1" style="edgeStyle=none;html=1;entryX=0.5;entryY=0;entryDx=0;entryDy=0;fontSize=12;" edge="1" parent="1" source="R-RN0vDuzp3KD049gmzq-2" target="R-RN0vDuzp3KD049gmzq-8">
                    <mxGeometry relative="1" as="geometry"/>
                </mxCell>
                <mxCell id="R-RN0vDuzp3KD049gmzq-2" value="inizio" style="strokeWidth=2;html=1;shape=mxgraph.flowchart.start_1;whiteSpace=wrap;rounded=1;strokeColor=#3333FF;fontSize=12;" vertex="1" parent="1">
                    <mxGeometry x="350" y="40" width="100" height="40" as="geometry"/>
                </mxCell>
                <mxCell id="R-RN0vDuzp3KD049gmzq-3" style="edgeStyle=none;html=1;exitX=1;exitY=0.5;exitDx=0;exitDy=0;entryX=0;entryY=0.5;entryDx=0;entryDy=0;fontSize=12;" edge="1" parent="1" source="R-RN0vDuzp3KD049gmzq-4" target="R-RN0vDuzp3KD049gmzq-6">
                    <mxGeometry relative="1" as="geometry"/>
                </mxCell>
                <mxCell id="R-RN0vDuzp3KD049gmzq-4" value="Base minore" style="shape=parallelogram;html=1;strokeWidth=2;perimeter=parallelogramPerimeter;whiteSpace=wrap;rounded=1;arcSize=12;size=0.23;strokeColor=#3333FF;fontSize=12;" vertex="1" parent="1">
                    <mxGeometry x="325" y="190" width="150" height="40" as="geometry"/>
                </mxCell>
                <mxCell id="R-RN0vDuzp3KD049gmzq-18" style="edgeStyle=orthogonalEdgeStyle;html=1;exitX=0.5;exitY=1;exitDx=0;exitDy=0;entryX=0.5;entryY=0;entryDx=0;entryDy=0;fontSize=12;" edge="1" parent="1" source="R-RN0vDuzp3KD049gmzq-6" target="R-RN0vDuzp3KD049gmzq-13">
                    <mxGeometry relative="1" as="geometry"/>
                </mxCell>
                <mxCell id="R-RN0vDuzp3KD049gmzq-6" value="&lt;br&gt;baseMin" style="html=1;strokeWidth=2;shape=manualInput;whiteSpace=wrap;rounded=1;size=26;arcSize=11;strokeColor=#3333FF;fontSize=12;" vertex="1" parent="1">
                    <mxGeometry x="550" y="190" width="100" height="40" as="geometry"/>
                </mxCell>
                <mxCell id="R-RN0vDuzp3KD049gmzq-7" style="edgeStyle=none;html=1;exitX=0.5;exitY=1;exitDx=0;exitDy=0;entryX=0.5;entryY=0;entryDx=0;entryDy=0;fontSize=12;" edge="1" parent="1" source="R-RN0vDuzp3KD049gmzq-8" target="R-RN0vDuzp3KD049gmzq-4">
                    <mxGeometry relative="1" as="geometry"/>
                </mxCell>
                <mxCell id="R-RN0vDuzp3KD049gmzq-8" value="baseMin = 0&lt;br&gt;baseMag = 0&lt;br&gt;altezza = 0&lt;br&gt;area = 0.0" style="rounded=1;whiteSpace=wrap;html=1;absoluteArcSize=1;arcSize=14;strokeWidth=2;strokeColor=#3333FF;fontSize=12;" vertex="1" parent="1">
                    <mxGeometry x="350" y="100" width="100" height="70" as="geometry"/>
                </mxCell>
                <mxCell id="R-RN0vDuzp3KD049gmzq-9" style="edgeStyle=none;html=1;exitX=0.5;exitY=1;exitDx=0;exitDy=0;entryX=0.5;entryY=0;entryDx=0;entryDy=0;fontSize=12;" edge="1" parent="1" source="R-RN0vDuzp3KD049gmzq-10" target="R-RN0vDuzp3KD049gmzq-11">
                    <mxGeometry relative="1" as="geometry"/>
                </mxCell>
                <mxCell id="R-RN0vDuzp3KD049gmzq-10" value="area = (baseMin+baseMag) * altezza / 2" style="rounded=1;whiteSpace=wrap;html=1;absoluteArcSize=1;arcSize=14;strokeWidth=2;strokeColor=#3333FF;fontSize=12;" vertex="1" parent="1">
                    <mxGeometry x="287.5" y="401" width="225" height="40" as="geometry"/>
                </mxCell>
                <mxCell id="R-RN0vDuzp3KD049gmzq-22" style="edgeStyle=orthogonalEdgeStyle;html=1;exitX=0.5;exitY=1;exitDx=0;exitDy=0;entryX=0.5;entryY=0;entryDx=0;entryDy=0;fontSize=12;" edge="1" parent="1" source="R-RN0vDuzp3KD049gmzq-11" target="R-RN0vDuzp3KD049gmzq-21">
                    <mxGeometry relative="1" as="geometry"/>
                </mxCell>
                <mxCell id="R-RN0vDuzp3KD049gmzq-11" value="area = lato * lato" style="rounded=1;whiteSpace=wrap;html=1;absoluteArcSize=1;arcSize=14;strokeWidth=2;strokeColor=#3333FF;fontSize=12;" vertex="1" parent="1">
                    <mxGeometry x="320" y="465" width="160" height="40" as="geometry"/>
                </mxCell>
                <mxCell id="R-RN0vDuzp3KD049gmzq-12" style="edgeStyle=none;html=1;exitX=1;exitY=0.5;exitDx=0;exitDy=0;entryX=0;entryY=0.5;entryDx=0;entryDy=0;fontSize=12;" edge="1" parent="1" source="R-RN0vDuzp3KD049gmzq-13" target="R-RN0vDuzp3KD049gmzq-14">
                    <mxGeometry relative="1" as="geometry"/>
                </mxCell>
                <mxCell id="R-RN0vDuzp3KD049gmzq-13" value="Base maggiore" style="shape=parallelogram;html=1;strokeWidth=2;perimeter=parallelogramPerimeter;whiteSpace=wrap;rounded=1;arcSize=12;size=0.23;strokeColor=#3333FF;fontSize=12;" vertex="1" parent="1">
                    <mxGeometry x="320" y="260" width="150" height="40" as="geometry"/>
                </mxCell>
                <mxCell id="R-RN0vDuzp3KD049gmzq-19" style="edgeStyle=orthogonalEdgeStyle;html=1;exitX=0.5;exitY=1;exitDx=0;exitDy=0;entryX=0.5;entryY=0;entryDx=0;entryDy=0;fontSize=12;" edge="1" parent="1" source="R-RN0vDuzp3KD049gmzq-14" target="R-RN0vDuzp3KD049gmzq-16">
                    <mxGeometry relative="1" as="geometry"/>
                </mxCell>
                <mxCell id="R-RN0vDuzp3KD049gmzq-14" value="&lt;br&gt;baseMag" style="html=1;strokeWidth=2;shape=manualInput;whiteSpace=wrap;rounded=1;size=26;arcSize=11;strokeColor=#3333FF;fontSize=12;" vertex="1" parent="1">
                    <mxGeometry x="545" y="260" width="100" height="40" as="geometry"/>
                </mxCell>
                <mxCell id="R-RN0vDuzp3KD049gmzq-15" style="edgeStyle=none;html=1;exitX=1;exitY=0.5;exitDx=0;exitDy=0;entryX=0;entryY=0.5;entryDx=0;entryDy=0;fontSize=12;" edge="1" parent="1" source="R-RN0vDuzp3KD049gmzq-16" target="R-RN0vDuzp3KD049gmzq-17">
                    <mxGeometry relative="1" as="geometry"/>
                </mxCell>
                <mxCell id="R-RN0vDuzp3KD049gmzq-16" value="Altezza" style="shape=parallelogram;html=1;strokeWidth=2;perimeter=parallelogramPerimeter;whiteSpace=wrap;rounded=1;arcSize=12;size=0.23;strokeColor=#3333FF;fontSize=12;" vertex="1" parent="1">
                    <mxGeometry x="320" y="330" width="150" height="40" as="geometry"/>
                </mxCell>
                <mxCell id="R-RN0vDuzp3KD049gmzq-20" style="edgeStyle=orthogonalEdgeStyle;html=1;exitX=0.5;exitY=1;exitDx=0;exitDy=0;entryX=0.5;entryY=0;entryDx=0;entryDy=0;fontSize=12;" edge="1" parent="1" source="R-RN0vDuzp3KD049gmzq-17" target="R-RN0vDuzp3KD049gmzq-10">
                    <mxGeometry relative="1" as="geometry"/>
                </mxCell>
                <mxCell id="R-RN0vDuzp3KD049gmzq-17" value="&lt;br&gt;altezza" style="html=1;strokeWidth=2;shape=manualInput;whiteSpace=wrap;rounded=1;size=26;arcSize=11;strokeColor=#3333FF;fontSize=12;" vertex="1" parent="1">
                    <mxGeometry x="545" y="330" width="100" height="40" as="geometry"/>
                </mxCell>
                <mxCell id="R-RN0vDuzp3KD049gmzq-24" style="edgeStyle=orthogonalEdgeStyle;html=1;exitX=0.5;exitY=1;exitDx=0;exitDy=0;entryX=0.5;entryY=0;entryDx=0;entryDy=0;entryPerimeter=0;fontSize=12;" edge="1" parent="1" source="R-RN0vDuzp3KD049gmzq-21" target="R-RN0vDuzp3KD049gmzq-23">
                    <mxGeometry relative="1" as="geometry"/>
                </mxCell>
                <mxCell id="R-RN0vDuzp3KD049gmzq-21" value="&quot;Area: &quot; area" style="shape=parallelogram;html=1;strokeWidth=2;perimeter=parallelogramPerimeter;whiteSpace=wrap;rounded=1;arcSize=12;size=0.23;strokeColor=#3333FF;fontSize=12;" vertex="1" parent="1">
                    <mxGeometry x="325" y="533" width="150" height="40" as="geometry"/>
                </mxCell>
                <mxCell id="R-RN0vDuzp3KD049gmzq-23" value="fine" style="strokeWidth=2;html=1;shape=mxgraph.flowchart.start_1;whiteSpace=wrap;rounded=1;strokeColor=#3333FF;fontSize=12;" vertex="1" parent="1">
                    <mxGeometry x="350" y="600" width="100" height="40" as="geometry"/>
                </mxCell>
            </root>
        </mxGraphModel>
    </diagram>
    <diagram id="yQkMSpFcTAFEiiSesOGj" name="Page-4">
        <mxGraphModel dx="956" dy="535" grid="1" gridSize="10" guides="1" tooltips="1" connect="1" arrows="1" fold="1" page="1" pageScale="1" pageWidth="827" pageHeight="1169" math="0" shadow="0">
            <root>
                <mxCell id="0"/>
                <mxCell id="1" parent="0"/>
                <mxCell id="27oJJuCizoYkYhwaDdSP-1" value="&lt;h2&gt;Esercizio 4&lt;/h2&gt;&lt;p&gt;Richiedi in input un valore intero, comunica il valore precedente e il valore successivo.&lt;/p&gt;" style="text;html=1;strokeColor=#3333FF;fillColor=none;spacing=5;spacingTop=-20;whiteSpace=wrap;overflow=hidden;rounded=1;" vertex="1" parent="1">
                    <mxGeometry x="10" y="10" width="270" height="100" as="geometry"/>
                </mxCell>
                <mxCell id="1tqB88c1aD_Yq2NJTcbi-1" style="edgeStyle=none;html=1;entryX=0.5;entryY=0;entryDx=0;entryDy=0;fontSize=12;" edge="1" parent="1" source="1tqB88c1aD_Yq2NJTcbi-2" target="1tqB88c1aD_Yq2NJTcbi-7">
                    <mxGeometry relative="1" as="geometry"/>
                </mxCell>
                <mxCell id="1tqB88c1aD_Yq2NJTcbi-2" value="inizio" style="strokeWidth=2;html=1;shape=mxgraph.flowchart.start_1;whiteSpace=wrap;rounded=1;strokeColor=#3333FF;fontSize=12;" vertex="1" parent="1">
                    <mxGeometry x="350" y="40" width="100" height="40" as="geometry"/>
                </mxCell>
                <mxCell id="1tqB88c1aD_Yq2NJTcbi-3" style="edgeStyle=none;html=1;exitX=1;exitY=0.5;exitDx=0;exitDy=0;entryX=0;entryY=0.5;entryDx=0;entryDy=0;fontSize=12;" edge="1" parent="1" source="1tqB88c1aD_Yq2NJTcbi-4" target="1tqB88c1aD_Yq2NJTcbi-5">
                    <mxGeometry relative="1" as="geometry"/>
                </mxCell>
                <mxCell id="1tqB88c1aD_Yq2NJTcbi-4" value="Inserisci un valore" style="shape=parallelogram;html=1;strokeWidth=2;perimeter=parallelogramPerimeter;whiteSpace=wrap;rounded=1;arcSize=12;size=0.23;strokeColor=#3333FF;fontSize=12;" vertex="1" parent="1">
                    <mxGeometry x="325" y="190" width="150" height="40" as="geometry"/>
                </mxCell>
                <mxCell id="1tqB88c1aD_Yq2NJTcbi-13" style="edgeStyle=orthogonalEdgeStyle;html=1;exitX=0.5;exitY=1;exitDx=0;exitDy=0;entryX=0.5;entryY=0;entryDx=0;entryDy=0;fontSize=12;" edge="1" parent="1" source="1tqB88c1aD_Yq2NJTcbi-5" target="1tqB88c1aD_Yq2NJTcbi-8">
                    <mxGeometry relative="1" as="geometry"/>
                </mxCell>
                <mxCell id="1tqB88c1aD_Yq2NJTcbi-5" value="&lt;br&gt;valore" style="html=1;strokeWidth=2;shape=manualInput;whiteSpace=wrap;rounded=1;size=26;arcSize=11;strokeColor=#3333FF;fontSize=12;" vertex="1" parent="1">
                    <mxGeometry x="550" y="190" width="100" height="40" as="geometry"/>
                </mxCell>
                <mxCell id="1tqB88c1aD_Yq2NJTcbi-6" style="edgeStyle=none;html=1;exitX=0.5;exitY=1;exitDx=0;exitDy=0;entryX=0.5;entryY=0;entryDx=0;entryDy=0;fontSize=12;" edge="1" parent="1" source="1tqB88c1aD_Yq2NJTcbi-7" target="1tqB88c1aD_Yq2NJTcbi-4">
                    <mxGeometry relative="1" as="geometry"/>
                </mxCell>
                <mxCell id="1tqB88c1aD_Yq2NJTcbi-7" value="valore = 0&lt;br&gt;prec = 0&lt;br&gt;succ = 0" style="rounded=1;whiteSpace=wrap;html=1;absoluteArcSize=1;arcSize=14;strokeWidth=2;strokeColor=#3333FF;fontSize=12;" vertex="1" parent="1">
                    <mxGeometry x="350" y="100" width="100" height="70" as="geometry"/>
                </mxCell>
                <mxCell id="1tqB88c1aD_Yq2NJTcbi-14" style="edgeStyle=orthogonalEdgeStyle;html=1;exitX=0.5;exitY=1;exitDx=0;exitDy=0;entryX=0.5;entryY=0;entryDx=0;entryDy=0;fontSize=12;" edge="1" parent="1" source="1tqB88c1aD_Yq2NJTcbi-8" target="1tqB88c1aD_Yq2NJTcbi-9">
                    <mxGeometry relative="1" as="geometry"/>
                </mxCell>
                <mxCell id="1tqB88c1aD_Yq2NJTcbi-8" value="succ = valore + 1" style="rounded=1;whiteSpace=wrap;html=1;absoluteArcSize=1;arcSize=14;strokeWidth=2;strokeColor=#3333FF;fontSize=12;" vertex="1" parent="1">
                    <mxGeometry x="350" y="280" width="100" height="40" as="geometry"/>
                </mxCell>
                <mxCell id="1tqB88c1aD_Yq2NJTcbi-15" style="edgeStyle=orthogonalEdgeStyle;html=1;exitX=0.5;exitY=1;exitDx=0;exitDy=0;entryX=0.5;entryY=0;entryDx=0;entryDy=0;fontSize=12;" edge="1" parent="1" source="1tqB88c1aD_Yq2NJTcbi-9" target="1tqB88c1aD_Yq2NJTcbi-10">
                    <mxGeometry relative="1" as="geometry"/>
                </mxCell>
                <mxCell id="1tqB88c1aD_Yq2NJTcbi-9" value="&quot;Valore successivo: &quot; succ" style="shape=parallelogram;html=1;strokeWidth=2;perimeter=parallelogramPerimeter;whiteSpace=wrap;rounded=1;arcSize=12;size=0.23;strokeColor=#3333FF;fontSize=12;" vertex="1" parent="1">
                    <mxGeometry x="292.5" y="340" width="215" height="40" as="geometry"/>
                </mxCell>
                <mxCell id="1tqB88c1aD_Yq2NJTcbi-16" style="edgeStyle=orthogonalEdgeStyle;html=1;exitX=0.5;exitY=1;exitDx=0;exitDy=0;entryX=0.5;entryY=0;entryDx=0;entryDy=0;fontSize=12;" edge="1" parent="1" source="1tqB88c1aD_Yq2NJTcbi-10" target="1tqB88c1aD_Yq2NJTcbi-11">
                    <mxGeometry relative="1" as="geometry"/>
                </mxCell>
                <mxCell id="1tqB88c1aD_Yq2NJTcbi-10" value="prec = valore - 1" style="rounded=1;whiteSpace=wrap;html=1;absoluteArcSize=1;arcSize=14;strokeWidth=2;strokeColor=#3333FF;fontSize=12;" vertex="1" parent="1">
                    <mxGeometry x="350" y="400" width="100" height="40" as="geometry"/>
                </mxCell>
                <mxCell id="1tqB88c1aD_Yq2NJTcbi-17" style="edgeStyle=orthogonalEdgeStyle;html=1;exitX=0.5;exitY=1;exitDx=0;exitDy=0;entryX=0.5;entryY=0;entryDx=0;entryDy=0;entryPerimeter=0;fontSize=12;" edge="1" parent="1" source="1tqB88c1aD_Yq2NJTcbi-11" target="1tqB88c1aD_Yq2NJTcbi-12">
                    <mxGeometry relative="1" as="geometry"/>
                </mxCell>
                <mxCell id="1tqB88c1aD_Yq2NJTcbi-11" value="&quot;Valore precedente: &quot; prec" style="shape=parallelogram;html=1;strokeWidth=2;perimeter=parallelogramPerimeter;whiteSpace=wrap;rounded=1;arcSize=12;size=0.23;strokeColor=#3333FF;fontSize=12;" vertex="1" parent="1">
                    <mxGeometry x="292.5" y="460" width="215" height="40" as="geometry"/>
                </mxCell>
                <mxCell id="1tqB88c1aD_Yq2NJTcbi-12" value="fine" style="strokeWidth=2;html=1;shape=mxgraph.flowchart.start_1;whiteSpace=wrap;rounded=1;strokeColor=#3333FF;fontSize=12;" vertex="1" parent="1">
                    <mxGeometry x="350" y="520" width="100" height="40" as="geometry"/>
                </mxCell>
            </root>
        </mxGraphModel>
    </diagram>
    <diagram id="mjdsV5nP-Y8zw8SXT64S" name="Page-5">
        <mxGraphModel dx="761" dy="535" grid="1" gridSize="10" guides="1" tooltips="1" connect="1" arrows="1" fold="1" page="1" pageScale="1" pageWidth="827" pageHeight="1169" math="0" shadow="0">
            <root>
                <mxCell id="0"/>
                <mxCell id="1" parent="0"/>
                <mxCell id="02IYMwOuYOB73mGCZ0uB-1" value="&lt;h2&gt;Esercizio 5&lt;/h2&gt;&lt;p&gt;Richiedi in input un valore intero (ipotizza sia una somma in euro), calcola e comunica a quanto corrispondono in Dollari (USD), YEN, Fiorino&lt;br&gt;&#9;Ungherese.&lt;/p&gt;" style="text;html=1;strokeColor=#3333FF;fillColor=none;spacing=5;spacingTop=-20;whiteSpace=wrap;overflow=hidden;rounded=1;" vertex="1" parent="1">
                    <mxGeometry x="10" y="10" width="270" height="100" as="geometry"/>
                </mxCell>
                <mxCell id="8Nvz5UoC8xs-3n7q7kfO-1" style="edgeStyle=none;html=1;entryX=0.5;entryY=0;entryDx=0;entryDy=0;fontSize=12;" edge="1" parent="1" source="8Nvz5UoC8xs-3n7q7kfO-2" target="8Nvz5UoC8xs-3n7q7kfO-6">
                    <mxGeometry relative="1" as="geometry"/>
                </mxCell>
                <mxCell id="8Nvz5UoC8xs-3n7q7kfO-2" value="inizio" style="strokeWidth=2;html=1;shape=mxgraph.flowchart.start_1;whiteSpace=wrap;rounded=1;strokeColor=#3333FF;fontSize=12;" vertex="1" parent="1">
                    <mxGeometry x="350" y="40" width="100" height="40" as="geometry"/>
                </mxCell>
                <mxCell id="8Nvz5UoC8xs-3n7q7kfO-3" style="edgeStyle=none;html=1;exitX=1;exitY=0.5;exitDx=0;exitDy=0;entryX=0;entryY=0.5;entryDx=0;entryDy=0;fontSize=12;" edge="1" parent="1" target="8Nvz5UoC8xs-3n7q7kfO-4" source="DgXd-AOAakVZ01ERqITm-1">
                    <mxGeometry relative="1" as="geometry">
                        <mxPoint x="457.75" y="300" as="sourcePoint"/>
                    </mxGeometry>
                </mxCell>
                <mxCell id="DgXd-AOAakVZ01ERqITm-9" style="edgeStyle=orthogonalEdgeStyle;html=1;exitX=0.5;exitY=1;exitDx=0;exitDy=0;entryX=0.5;entryY=0;entryDx=0;entryDy=0;fontSize=12;" edge="1" parent="1" source="8Nvz5UoC8xs-3n7q7kfO-4" target="DgXd-AOAakVZ01ERqITm-2">
                    <mxGeometry relative="1" as="geometry"/>
                </mxCell>
                <mxCell id="8Nvz5UoC8xs-3n7q7kfO-4" value="&lt;br&gt;euro" style="html=1;strokeWidth=2;shape=manualInput;whiteSpace=wrap;rounded=1;size=26;arcSize=11;strokeColor=#3333FF;fontSize=12;" vertex="1" parent="1">
                    <mxGeometry x="550" y="280" width="100" height="40" as="geometry"/>
                </mxCell>
                <mxCell id="8Nvz5UoC8xs-3n7q7kfO-5" style="edgeStyle=none;html=1;exitX=0.5;exitY=1;exitDx=0;exitDy=0;entryX=0.5;entryY=0;entryDx=0;entryDy=0;fontSize=12;" edge="1" parent="1" source="8Nvz5UoC8xs-3n7q7kfO-6" target="DgXd-AOAakVZ01ERqITm-1">
                    <mxGeometry relative="1" as="geometry">
                        <mxPoint x="400" y="190" as="targetPoint"/>
                    </mxGeometry>
                </mxCell>
                <mxCell id="8Nvz5UoC8xs-3n7q7kfO-6" value="euro = 0.0&lt;br&gt;EUROUSD = 1.05&lt;br&gt;EUROYEN = 158,48&lt;br&gt;EUROHUF = 382.63&lt;br&gt;usd = 0.0&lt;br&gt;yen = 0.0&lt;br&gt;huf = 0.0" style="rounded=1;whiteSpace=wrap;html=1;absoluteArcSize=1;arcSize=14;strokeWidth=2;strokeColor=#3333FF;fontSize=12;" vertex="1" parent="1">
                    <mxGeometry x="315" y="100" width="170" height="100" as="geometry"/>
                </mxCell>
                <mxCell id="DgXd-AOAakVZ01ERqITm-1" value="Quanti euro:&amp;nbsp;" style="shape=parallelogram;html=1;strokeWidth=2;perimeter=parallelogramPerimeter;whiteSpace=wrap;rounded=1;arcSize=12;size=0.23;strokeColor=#3333FF;fontSize=12;" vertex="1" parent="1">
                    <mxGeometry x="325" y="280" width="150" height="40" as="geometry"/>
                </mxCell>
                <mxCell id="DgXd-AOAakVZ01ERqITm-10" style="edgeStyle=orthogonalEdgeStyle;html=1;exitX=0.5;exitY=1;exitDx=0;exitDy=0;entryX=0.5;entryY=0;entryDx=0;entryDy=0;fontSize=12;" edge="1" parent="1" source="DgXd-AOAakVZ01ERqITm-2" target="DgXd-AOAakVZ01ERqITm-3">
                    <mxGeometry relative="1" as="geometry"/>
                </mxCell>
                <mxCell id="DgXd-AOAakVZ01ERqITm-2" value="usd = euro * EUROUSD" style="rounded=1;whiteSpace=wrap;html=1;absoluteArcSize=1;arcSize=14;strokeWidth=2;strokeColor=#3333FF;fontSize=12;" vertex="1" parent="1">
                    <mxGeometry x="297.5" y="360" width="205" height="40" as="geometry"/>
                </mxCell>
                <mxCell id="DgXd-AOAakVZ01ERqITm-11" style="edgeStyle=orthogonalEdgeStyle;html=1;exitX=0.5;exitY=1;exitDx=0;exitDy=0;entryX=0.5;entryY=0;entryDx=0;entryDy=0;fontSize=12;" edge="1" parent="1" source="DgXd-AOAakVZ01ERqITm-3" target="DgXd-AOAakVZ01ERqITm-4">
                    <mxGeometry relative="1" as="geometry"/>
                </mxCell>
                <mxCell id="DgXd-AOAakVZ01ERqITm-3" value="&quot;Dollari: &quot; usd" style="shape=parallelogram;html=1;strokeWidth=2;perimeter=parallelogramPerimeter;whiteSpace=wrap;rounded=1;arcSize=12;size=0.23;strokeColor=#3333FF;fontSize=12;" vertex="1" parent="1">
                    <mxGeometry x="325" y="430" width="150" height="40" as="geometry"/>
                </mxCell>
                <mxCell id="DgXd-AOAakVZ01ERqITm-12" style="edgeStyle=orthogonalEdgeStyle;html=1;exitX=0.5;exitY=1;exitDx=0;exitDy=0;entryX=0.5;entryY=0;entryDx=0;entryDy=0;fontSize=12;" edge="1" parent="1" source="DgXd-AOAakVZ01ERqITm-4" target="DgXd-AOAakVZ01ERqITm-5">
                    <mxGeometry relative="1" as="geometry"/>
                </mxCell>
                <mxCell id="DgXd-AOAakVZ01ERqITm-4" value="yen = euro * EUROYEN" style="rounded=1;whiteSpace=wrap;html=1;absoluteArcSize=1;arcSize=14;strokeWidth=2;strokeColor=#3333FF;fontSize=12;" vertex="1" parent="1">
                    <mxGeometry x="297.5" y="500" width="205" height="40" as="geometry"/>
                </mxCell>
                <mxCell id="DgXd-AOAakVZ01ERqITm-13" style="edgeStyle=orthogonalEdgeStyle;html=1;exitX=0.5;exitY=1;exitDx=0;exitDy=0;entryX=0.5;entryY=0;entryDx=0;entryDy=0;fontSize=12;" edge="1" parent="1" source="DgXd-AOAakVZ01ERqITm-5" target="DgXd-AOAakVZ01ERqITm-6">
                    <mxGeometry relative="1" as="geometry"/>
                </mxCell>
                <mxCell id="DgXd-AOAakVZ01ERqITm-5" value="&quot;Dollari: &quot; yen" style="shape=parallelogram;html=1;strokeWidth=2;perimeter=parallelogramPerimeter;whiteSpace=wrap;rounded=1;arcSize=12;size=0.23;strokeColor=#3333FF;fontSize=12;" vertex="1" parent="1">
                    <mxGeometry x="325" y="565" width="150" height="40" as="geometry"/>
                </mxCell>
                <mxCell id="DgXd-AOAakVZ01ERqITm-14" style="edgeStyle=orthogonalEdgeStyle;html=1;exitX=0.5;exitY=1;exitDx=0;exitDy=0;entryX=0.5;entryY=0;entryDx=0;entryDy=0;fontSize=12;" edge="1" parent="1" source="DgXd-AOAakVZ01ERqITm-6" target="DgXd-AOAakVZ01ERqITm-7">
                    <mxGeometry relative="1" as="geometry"/>
                </mxCell>
                <mxCell id="DgXd-AOAakVZ01ERqITm-6" value="huf = euro * EUROHUF" style="rounded=1;whiteSpace=wrap;html=1;absoluteArcSize=1;arcSize=14;strokeWidth=2;strokeColor=#3333FF;fontSize=12;" vertex="1" parent="1">
                    <mxGeometry x="297.5" y="630" width="205" height="40" as="geometry"/>
                </mxCell>
                <mxCell id="DgXd-AOAakVZ01ERqITm-15" style="edgeStyle=orthogonalEdgeStyle;html=1;exitX=0.5;exitY=1;exitDx=0;exitDy=0;entryX=0.5;entryY=0;entryDx=0;entryDy=0;entryPerimeter=0;fontSize=12;" edge="1" parent="1" source="DgXd-AOAakVZ01ERqITm-7" target="DgXd-AOAakVZ01ERqITm-8">
                    <mxGeometry relative="1" as="geometry"/>
                </mxCell>
                <mxCell id="DgXd-AOAakVZ01ERqITm-7" value="&quot;Dollari: &quot; huf" style="shape=parallelogram;html=1;strokeWidth=2;perimeter=parallelogramPerimeter;whiteSpace=wrap;rounded=1;arcSize=12;size=0.23;strokeColor=#3333FF;fontSize=12;" vertex="1" parent="1">
                    <mxGeometry x="325" y="700" width="150" height="40" as="geometry"/>
                </mxCell>
                <mxCell id="DgXd-AOAakVZ01ERqITm-8" value="fine" style="strokeWidth=2;html=1;shape=mxgraph.flowchart.start_1;whiteSpace=wrap;rounded=1;strokeColor=#3333FF;fontSize=12;" vertex="1" parent="1">
                    <mxGeometry x="350" y="770" width="100" height="40" as="geometry"/>
                </mxCell>
            </root>
        </mxGraphModel>
    </diagram>
</mxfile>